<?xml version="1.0" encoding="UTF-8" standalone="no"?>
<svg width="1300px" height="800px" viewBox="0 0 1300 800" version="1.1" xmlns="http://www.w3.org/2000/svg" xmlns:xlink="http://www.w3.org/1999/xlink">
    <!-- Generator: Sketch 39.1 (31720) - http://www.bohemiancoding.com/sketch -->
    <title>Home</title>
    <desc>Created with Sketch.</desc>
    <defs>
        <linearGradient x1="43.4155734%" y1="36.4116134%" x2="40.5066148%" y2="44.3763241%" id="linearGradient-1">
            <stop stop-color="#636363" offset="0%"></stop>
            <stop stop-color="#414141" offset="100%"></stop>
        </linearGradient>
        <linearGradient x1="48.6451815%" y1="19.7847759%" x2="45.8561751%" y2="23.2302175%" id="linearGradient-2">
            <stop stop-color="#FFFFFF" offset="0%"></stop>
            <stop stop-color="#636363" offset="100%"></stop>
        </linearGradient>
        <linearGradient x1="49.3539486%" y1="19.2142564%" x2="45.8561751%" y2="23.2302175%" id="linearGradient-3">
            <stop stop-color="#FFFFFF" offset="0%"></stop>
            <stop stop-color="#636363" offset="100%"></stop>
        </linearGradient>
        <linearGradient x1="36.8508274%" y1="48.5198289%" x2="39.9510349%" y2="41.0333375%" id="linearGradient-4">
            <stop stop-color="#414141" offset="0%"></stop>
            <stop stop-color="#636363" offset="100%"></stop>
        </linearGradient>
        <linearGradient x1="44.6273736%" y1="20.6595853%" x2="42.2574344%" y2="23.5481442%" id="linearGradient-5">
            <stop stop-color="#FFFFFF" offset="0%"></stop>
            <stop stop-color="#636363" offset="100%"></stop>
        </linearGradient>
    </defs>
    <g id="Screens" stroke="none" stroke-width="1" fill="none" fill-rule="evenodd">
        <g id="Home">
            <g id="404" transform="translate(98.000000, 175.000000)">
                <g id="4">
                    <rect id="Rectangle-9" fill="url(#linearGradient-1)" x="264" y="382" width="53" height="32.4000015" rx="3"></rect>
                    <path d="M316.907227,113.665039 L264,83 L264,40 L314.319586,69.165242 C315.7487,69.993557 316.907227,71.9990958 316.907227,73.671625 L316.907227,113.665039 Z" id="Rectangle-3" fill="url(#linearGradient-2)"></path>
                    <path d="M146.50293,69.2762336 C147.937251,70.1077009 149.099998,72.1177826 149.099998,73.7731466 L149.099998,119.781738 L96,89 L96,40 L146.50293,69.2762336 Z" id="Rectangle-8" fill="url(#linearGradient-3)"></path>
                    <polygon id="Rectangle-2" fill="#636363" points="149.138672 74.5039063 149.138672 206.503906 98 177 98 45"></polygon>
                    <path d="M197,247 L318.326172,276.352539 L155.33123,276.352539 C153.671582,276.352539 151.025419,276.037847 149.417044,275.648731 L31,247 L197,247 Z" id="Rectangle" fill="#414141"></path>
                    <polygon id="Rectangle-6" fill="#636363" points="317 74.2910156 317 411.291016 267 382 267 45"></polygon>
                    <path d="M315.02863,414.352539 L254.029642,414.352539 C252.372229,414.352539 249.866949,413.68432 248.427958,412.856588 L200,385 L264,385 L315.02863,414.352539 Z" id="Rectangle-7" fill="#404040"></path>
                    <g stroke-width="1" transform="translate(28.000000, 40.000000)" fill="#D8D8D8">
                        <rect id="Rectangle-11" x="0" y="0" width="70" height="207" rx="3"></rect>
                        <rect id="Rectangle-11-Copy" x="169" y="0" width="70" height="345" rx="3"></rect>
                        <rect id="Rectangle-11-Copy-2" transform="translate(119.625000, 172.000000) rotate(-90.000000) translate(-119.625000, -172.000000) " x="84.625" y="52.375" width="70" height="239.25" rx="3"></rect>
                    </g>
                </g>
                <g id="4" transform="translate(713.000000, 0.000000)">
                    <rect id="Rectangle-9" fill="url(#linearGradient-1)" x="264" y="382" width="53" height="32.4000015" rx="3"></rect>
                    <path d="M316.907227,113.665039 L264,83 L264,40 L314.319586,69.165242 C315.7487,69.993557 316.907227,71.9990958 316.907227,73.671625 L316.907227,113.665039 Z" id="Rectangle-3" fill="url(#linearGradient-2)"></path>
                    <path d="M146.50293,69.2762336 C147.937251,70.1077009 149.099998,72.1177826 149.099998,73.7731466 L149.099998,119.781738 L96,89 L96,40 L146.50293,69.2762336 Z" id="Rectangle-8" fill="url(#linearGradient-3)"></path>
                    <polygon id="Rectangle-2" fill="#636363" points="149.138672 74.5039063 149.138672 206.503906 98 177 98 45"></polygon>
                    <path d="M197,247 L318.326172,276.352539 L155.33123,276.352539 C153.671582,276.352539 151.025419,276.037847 149.417044,275.648731 L31,247 L197,247 Z" id="Rectangle" fill="#414141"></path>
                    <polygon id="Rectangle-6" fill="#636363" points="317 74.2910156 317 411.291016 267 382 267 45"></polygon>
                    <path d="M315.02863,414.352539 L254.029642,414.352539 C252.372229,414.352539 249.866949,413.68432 248.427958,412.856588 L200,385 L264,385 L315.02863,414.352539 Z" id="Rectangle-7" fill="#404040"></path>
                    <g stroke-width="1" transform="translate(28.000000, 40.000000)" fill="#D8D8D8">
                        <rect id="Rectangle-11" x="0" y="0" width="70" height="207" rx="3"></rect>
                        <rect id="Rectangle-11-Copy" x="169" y="0" width="70" height="345" rx="3"></rect>
                        <rect id="Rectangle-11-Copy-2" transform="translate(119.625000, 172.000000) rotate(-90.000000) translate(-119.625000, -172.000000) " x="84.625" y="52.375" width="70" height="239.25" rx="3"></rect>
                    </g>
                </g>
                <g id="0" transform="translate(357.000000, 0.000000)">
                    <rect id="Rectangle-12" fill="url(#linearGradient-4)" x="282" y="375" width="57" height="40.2000008"></rect>
                    <path d="M339.099998,108.103746 L287,75 L287,39 L336.5695,70.4958958 C337.967056,71.3838867 339.099998,73.4492849 339.099998,75.1111655 L339.099998,108.103746 Z" id="Rectangle-13" fill="url(#linearGradient-5)"></path>
                    <polygon id="Rectangle-10" fill="#636363" points="339 74.4960937 339 411.496094 289 380 289 43"></polygon>
                    <polygon id="Rectangle-10-Copy" fill="#636363" points="170 127.160156 170 332.160156 120 314 120 109"></polygon>
                    <polygon id="Rectangle-10-Copy-2" fill="#414141" points="218 109 267.856364 127.093891 168.856364 127.093891 119 109"></polygon>
                    <path d="M286,384 L335.085883,415.195605 L105.095669,415.195605 C103.43341,415.195605 100.944795,414.470409 99.5501753,413.584084 L53,384 L286,384 Z" id="Rectangle-10-Copy-3" fill="#414141"></path>
                    <g stroke-width="1" transform="translate(50.000000, 39.000000)" fill="#D8D8D8">
                        <rect id="Rectangle-11" x="0" y="2.84217094e-14" width="70" height="345" rx="3"></rect>
                        <rect id="Rectangle-11-Copy" x="169" y="0" width="70" height="345" rx="3"></rect>
                        <rect id="Rectangle-11-Copy-2" transform="translate(119.625000, 310.000000) rotate(-90.000000) translate(-119.625000, -310.000000) " x="84.625" y="190.375" width="70" height="239.25" rx="3"></rect>
                        <rect id="Rectangle-11-Copy-3" transform="translate(119.625000, 35.000000) rotate(-90.000000) translate(-119.625000, -35.000000) " x="84.625" y="-84.625" width="70" height="239.25" rx="3"></rect>
                    </g>
                </g>
            </g>
        </g>
    </g>
</svg>